Coordinates
version=1
nRows=6
nColumns=36
inDegrees=yes

Units are S.I. units (second, meters, Newtons, ...)
If the header above contains a line with 'inDegrees', this indicates whether rotational values are in degrees (yes) or radians (no).

endheader
time	pelvis_tilt	pelvis_list	pelvis_rotation	pelvis_tx	pelvis_ty	pelvis_tz	hip_flexion_r	hip_adduction_r	hip_rotation_r	knee_angle_r	knee_angle_r_beta	ankle_angle_r	subtalar_angle_r	mtp_angle_r	hip_flexion_l	hip_adduction_l	hip_rotation_l	knee_angle_l	knee_angle_l_beta	ankle_angle_l	subtalar_angle_l	mtp_angle_l	lumbar_extension	lumbar_bending	lumbar_rotation	arm_flex_r	arm_add_r	arm_rot_r	elbow_flex_r	pro_sup_r	arm_flex_l	arm_add_l	arm_rot_l	elbow_flex_l	pro_sup_l
      3.55000000	      0.41281745	     -8.70026091	      5.94575899	      0.71424448	      1.01435714	     -0.11851217	     34.64456888	      4.52615894	      3.78316876	     16.59669182	      0.28966692	     -4.86811050	     -1.62275235	     -7.49999980	     13.02780037	     -0.49089717	     -4.76483080	     21.03592909	      0.36714622	     -1.57046480	     -7.80240362	     -7.49999980	    -24.47688799	      9.05089452	      5.59195272	     42.54245172	     14.82689711	     70.86822426	    118.93547609	     93.39550347	     56.03393999	      9.10189307	     74.23140962	    130.18324903	     70.34339885
      3.56666670	      0.65465118	     -8.99408994	      5.84518456	      0.71844464	      1.01308646	     -0.12061854	     34.02417547	      4.95444029	      4.11786669	     16.61791369	      0.29003731	     -4.30958582	     -0.55004857	     -7.49999981	     11.84076382	     -0.66476714	     -4.17229633	     19.49596616	      0.34026880	     -1.77120039	     -8.32271449	     -7.49999981	    -23.70482004	      9.35054675	      5.54653951	     41.86022249	     15.19932856	     70.82393167	    118.80798269	     91.39168898	     55.48066196	      8.94545491	     73.90053940	    129.88046848	     69.25227648
      3.58333330	      0.65334020	     -9.18267388	      5.90402996	      0.71844563	      1.01583454	     -0.12073311	     33.48288246	      5.12005616	      4.80285194	     16.51579893	      0.28825507	     -4.10608972	     -0.18867315	     -7.49999981	     10.91270122	     -0.65672547	     -3.51892849	     17.87326634	      0.31194735	     -2.05806722	     -8.55693212	     -7.49999981	    -22.76854448	      9.58844619	      5.61019076	     41.14463016	     15.39170773	     70.71488588	    118.82141378	     91.34422174	     54.96259347	      9.00184598	     73.82909809	    129.70124099	     69.11786051
      3.60000000	      0.75874556	     -9.40481287	      5.64669192	      0.72312749	      1.01688109	     -0.12300874	     32.89373957	      5.45854450	      5.42609290	     16.19280337	      0.28261773	     -3.86677754	      0.37962621	     -7.49999981	      9.87181992	     -0.69305429	     -3.00609317	     16.44761664	      0.28706506	     -2.41675112	     -9.13744645	     -7.49999981	    -22.08851408	      9.92823753	      5.73968666	     40.87622632	     15.57192214	     70.84463947	    118.82503679	     90.63997231	     54.43588263	      8.92290418	     73.44270912	    129.66253645	     68.32548425
      3.61666670	      0.91872912	     -9.43501546	      5.23700489	      0.72325574	      1.01718716	     -0.12275575	     32.33672106	      5.70727783	      6.00334346	     16.11826073	      0.28131672	     -3.80404551	      0.70947913	     -7.49999982	      8.97038657	     -0.61414052	     -2.68973677	     15.29431776	      0.26693620	     -2.83656867	     -9.72487487	     -7.49999982	    -21.60702849	      9.80285733	      6.09224083	     40.79384058	     15.48509509	     70.71823991	    119.14263166	     89.69821542	     54.34903142	      9.07821528	     73.08265652	    129.52544795	     67.68492115
      3.63333330	      0.99091456	     -9.39494350	      4.91772437	      0.72271446	      1.01750881	     -0.12213769	     31.97562211	      5.81500999	      6.66994650	     16.07684736	      0.28059392	     -3.57131288	      1.16866954	     -7.49999982	      8.46821848	     -0.51447655	     -2.54432008	     14.56424747	      0.25419407	     -3.15311593	    -10.04078813	     -7.49999982	    -21.22787021	      9.65570997	      6.46616590	     40.92740409	     15.37092517	     70.34162034	    119.22402366	     88.36118557	     54.40686016	      9.26688391	     72.80691732	    129.36596267	     66.98332232
